# xmcd CD database file
#
# Track frame offsets:
#	150
#	25115
#	64812
#	90575
#	122432
#	158527
#
# Disc length: 2757 seconds
#
# Revision: 0
# Processed by: cddbd v1.5.1PL0 Copyright (c) Steve Scherf et al.
# Submitted via: CDex 1.60beta1
#
DISCID=3b0ac306
DTITLE=Various Artist - Blue Note Essentials, Vol. 1
DYEAR=1900
DGENRE=Jazz
TTITLE0=Herbie Hancock/Cantaloupe Island
TTITLE1=Art Blakey and The Jazz Messengers/Dat Dere
TTITLE2=Donald Byrd/Cristo Redentor
TTITLE3=Horace Silver/Senor Blues
TTITLE4=Joe Henderson/Blue Bossa
TTITLE5=John Coltrane/Blue Train
EXTD=
EXTT0=
EXTT1=
EXTT2=
EXTT3=
EXTT4=
EXTT5=
PLAYORDER=
